<?xml version="1.0" encoding="utf-8"?>
<svg version="1.1" id="Layer_1" x="0px" y="0px" style="enable-background:new 0 0 792 612;" viewBox="310.422 177.49 181.186 149.003" xmlns="http://www.w3.org/2000/svg">
  <defs/>
  <style type="text/css">
	.st0{fill:#FFFFFF;stroke:#52C9EF;stroke-miterlimit:10;}
	.st1{fill:#E58888;stroke:#E58888;stroke-width:2;stroke-miterlimit:10;}
	.st2{fill:#FFFFFF;stroke:#E58888;stroke-width:2;stroke-miterlimit:10;}
	.st3{fill:#FFFFFF;stroke:#52C9EF;stroke-width:4;stroke-linecap:round;stroke-miterlimit:10;}
	.st4{fill:#FFFFFF;stroke:#52C9EF;stroke-width:4;stroke-miterlimit:10;}
	.st5{fill:#FFFFFF;stroke:#52C9EF;stroke-width:2;stroke-miterlimit:10;}
	.st6{fill:#FFFFFF;stroke:#FFFFFF;stroke-width:4;stroke-miterlimit:10;}
	.st7{fill:#F18578;stroke:#F18578;stroke-miterlimit:10;}
	.st8{fill:none;stroke:#52C9EF;stroke-width:4;stroke-linecap:round;stroke-miterlimit:10;}
	.st9{fill:none;stroke:#52C9EF;stroke-width:4;stroke-miterlimit:10;}
	.st10{fill:#52C9EF;stroke:#52C9EF;stroke-width:2;stroke-miterlimit:10;}
	.st11{fill:#52C9EF;}
</style>
  <g>
    <circle class="st1" cx="483.29" cy="243.73" r="2.69"/>
    <circle class="st2" cx="483.5" cy="242.69" r="2.69"/>
    <circle class="st7" cx="483.29" cy="244.19" r="4.41" style="stroke: rgb(204, 36, 29);"/>
    <g>
      <path class="st8" d="M365.38,222.22c0,0-4.73,11.81-3.39,18.34c0,0-5.17,11.7-9.58,18.02c-4.4,6.32-1.34,10.15-1.34,10.15" style="stroke: rgb(214, 93, 14);"/>
      <path class="st9" d="M411.16,186.91c-1.2,6.81-4.22,14.38-1.31,18.18" style="stroke: rgb(214, 93, 14);"/>
      <g>
        <ellipse class="st10" cx="418.93" cy="232.68" rx="2.21" ry="2.21"/>
        <path class="st8" d="M391.62,201.67c0,0,27.32,2.76,34.25,7.13s12.03,17.13,13.12,17.49c1.09,0.36,16.01,5.16,17.72,6.09     c1.71,0.92,14.34,3.03,20.39,5.66c0,0,3.03,0.92,5.39,1.05s8.34,2.06,1.7,11.85c-6.65,9.79-12.2,20.78-22.65,22.6     c-10.45,1.82-23.98-2.97-31.56,4.03c-7.58,7-10.93,15.35-23.98,17.65c-13.04,2.3-14.39,3.84-15.25,4.32s2.21-4.12,3.17-4.51     c0.96-0.38-15.06,0.48-20.53,3.26c0,0-1.15,0.65-1.44,1.28c-0.29,0.64,0-7.32,4.6-11.07c4.6-3.74-12.85,1.44-13.52,2.11     c-0.67,0.67,0.19-2.78,2.3-3.45c2.11-0.67-8.15,3.55-9.98,5.75c-1.82,2.21,0.19-4.6,2.88-6.04" style="stroke: rgb(214, 93, 14);"/>
        <path class="st8" d="M376.5,229.99c0.64-0.32,0.75-2.13,1.17-3.2c0.43-1.07,2.46-0.21,3.31-1.17c0.85-0.96,0-3.52,0-3.52     c-4.8-4.48-2.88-12.6-3.2-11.85c-0.32,0.75,0,3.42,0.87,3.63c0.87,0.21,5.64,4.48,5.1,3.1c-0.53-1.39-1.63-5.85-1.52-5.42     c0.11,0.43,4.72,3.28,5.05,1.68c0,0-2.93-9.74-4.47-10.47s5.52,2.17,6.88,9.59" style="stroke: rgb(214, 93, 14);"/>
        <path class="st8" d="M368.21,230.6c0,0-3.46-5.62-2.81-10.82c0.65-5.19-2.16-24.44-2.6-25.96c-0.43-1.51,3.03-8.65,2.7-10.17     c-0.32-1.51-0.62-3.1-1.19-4.11c-0.55-0.98,22.11,11.48,29.15,27.28l1.07,2.35c0,0-3.2,5.23-3.95,4.16" style="stroke: rgb(214, 93, 14);"/>
        <path class="st8" d="M375.65,224.34c0,0-14.45-30.15-10.6-38.27" style="stroke: rgb(214, 93, 14);"/>
        <path class="st9" d="M410.04,186.6c-1.38,2.05-6.23,9.56-6.72,13.99v2.6l13.15,2.41c0,0-1.66-3.86-3-10.95     c-0.93-4.93-2.05-7.15-2.64-8.05C410.64,186.32,410.23,186.32,410.04,186.6z" style="stroke: rgb(214, 93, 14);"/>
        <path class="st9" d="M365.4,214.86c-1.22,0.99-1.52,1.32-2.63,1.71c0,0-33.96,10.74-37.36,39.3c0,0.01,2.83-0.49,2.4,0.02     c-0.35,0.42,4.04-5.78,8.19-5.35c0.05,0,0.06,0.07,0.03,0.09c-1.11,0.83-10.62,8.16-12.6,18.13c-0.01,0.03,0.02,0.05,0.05,0.03     c0.71-0.59,7.3-5.98,10.44-5.86c0.06,0,0.08,0.07,0.05,0.11c-0.95,1.18-9.57,12.06-12.91,22.94c-3.02,9.83-1.96,17.3-1.59,19.29     c0.04,0.22,0.31,0.29,0.46,0.13c2.04-2.26,12.5-13.48,19.15-13.21c0,0-9.08,15.57-8.03,27.25c0.07,0.77,1.05,1.06,1.53,0.45     c2.17-2.74,7.8-7.66,20.68-8.5c18.02-1.18,38.01,0.63,47.96-5.59c9.94-6.22,17.99-16.67,19.74-18.52" style="stroke: rgb(214, 93, 14);"/>
        <path class="st9" d="M420.75,226.3c-0.49,0.29-0.93,0.62-1.33,0.98c-2.83,2.53-3.76,6.54-3.8,7.69     c-0.05,1.31,1.26,1.31,4.15,1.05s10.53-0.78,3.84-3.61" style="stroke: rgb(69, 133, 136);"/>
        <path class="st9" d="M479.44,238.64c-1.76,6.97-0.41,9.56,4.13,10c1.93,0.19,1.93,0.19,1.93,0.19" style="stroke: rgb(214, 93, 14);"/>
      </g>
    </g>
    <g transform="matrix(1, 0, 0, 1, 2.174941, -33.143814)"/>
  </g>
</svg>